<?xml version="1.0" standalone="no"?>
<svg xmlns:xlink="http://www.w3.org/1999/xlink" xmlns="http://www.w3.org/2000/svg" id="svg" width="268" height="1084"><path fill="#292524" d="M0,3 a3.2,3.2 0 0 1 3.2,-3.2 h126 a3.2,3.2 0 0 1 3.2,3.2 v58 a3.2,3.2 0 0 1 -3.2,3.2 h-68 a60.8,60.8 0 0 1 -60.8,-60.8 v-0 z"></path><path fill="#292524" d="M0,71 a3.2,3.2 0 0 1 3.2,-3.2 h126 a3.2,3.2 0 0 1 3.2,3.2 v0 a60.8,60.8 0 0 1 -60.8,60.8 h-68 a3.2,3.2 0 0 1 -3.2,-3.2 v-58 z"></path><path fill="#292524" d="M0,139 a3.2,3.2 0 0 1 3.2,-3.2 h68 a60.8,60.8 0 0 1 60.8,60.8 v0 a3.2,3.2 0 0 1 -3.2,3.2 h-68 a60.8,60.8 0 0 1 -60.8,-60.8 v-0 z"></path><path fill="#292524" d="M0,265 a60.8,60.8 0 0 1 60.8,-60.8 h68 a3.2,3.2 0 0 1 3.2,3.2 v58 a3.2,3.2 0 0 1 -3.2,3.2 h-126 a3.2,3.2 0 0 1 -3.2,-3.2 v-0 z"></path><path fill="#292524" d="M0,275 a3.2,3.2 0 0 1 3.2,-3.2 h58 a3.2,3.2 0 0 1 3.2,3.2 v0 a60.8,60.8 0 0 1 -60.8,60.8 h-0 a3.2,3.2 0 0 1 -3.2,-3.2 v-58 z"></path><path fill="#292524" d="M0,343 a3.2,3.2 0 0 1 3.2,-3.2 h58 a3.2,3.2 0 0 1 3.2,3.2 v58 a3.2,3.2 0 0 1 -3.2,3.2 h-58 a3.2,3.2 0 0 1 -3.2,-3.2 v-58 z"></path><path fill="#292524" d="M0,411 a3.2,3.2 0 0 1 3.2,-3.2 h58 a3.2,3.2 0 0 1 3.2,3.2 v126 a3.2,3.2 0 0 1 -3.2,3.2 h-0 a60.8,60.8 0 0 1 -60.8,-60.8 v-68 z"></path><path fill="#292524" d="M0,547 a3.2,3.2 0 0 1 3.2,-3.2 h58 a3.2,3.2 0 0 1 3.2,3.2 v68 a60.8,60.8 0 0 1 -60.8,60.8 h-0 a3.2,3.2 0 0 1 -3.2,-3.2 v-126 z"></path><path fill="#292524" d="M0,741 a60.8,60.8 0 0 1 60.8,-60.8 h0 a3.2,3.2 0 0 1 3.2,3.2 v68 a60.8,60.8 0 0 1 -60.8,60.8 h-0 a3.2,3.2 0 0 1 -3.2,-3.2 v-68 z"></path><path fill="#292524" d="M0,819 a3.2,3.2 0 0 1 3.2,-3.2 h126 a3.2,3.2 0 0 1 3.2,3.2 v0 a60.8,60.8 0 0 1 -60.8,60.8 h-10 a60.8,60.8 0 0 1 -60.8,-60.8 v-0 z"></path><path fill="#292524" d="M0,887 a3.2,3.2 0 0 1 3.2,-3.2 h58 a3.2,3.2 0 0 1 3.2,3.2 v0 a60.8,60.8 0 0 1 -60.8,60.8 h-0 a3.2,3.2 0 0 1 -3.2,-3.2 v-58 z"></path><path fill="#292524" d="M0,955 a3.2,3.2 0 0 1 3.2,-3.2 h58 a3.2,3.2 0 0 1 3.2,3.2 v58 a3.2,3.2 0 0 1 -3.2,3.2 h-0 a60.8,60.8 0 0 1 -60.8,-60.8 v-0 z"></path><path fill="#292524" d="M0,1023 a3.2,3.2 0 0 1 3.2,-3.2 h58 a3.2,3.2 0 0 1 3.2,3.2 v0 a60.8,60.8 0 0 1 -60.8,60.8 h-0 a3.2,3.2 0 0 1 -3.2,-3.2 v-58 z"></path><path fill="#292524" d="M68,275 a3.2,3.2 0 0 1 3.2,-3.2 h58 a3.2,3.2 0 0 1 3.2,3.2 v68 a60.8,60.8 0 0 1 -60.8,60.8 h-0 a3.2,3.2 0 0 1 -3.2,-3.2 v-126 z"></path><path fill="#292524" d="M68,411 a3.2,3.2 0 0 1 3.2,-3.2 h68 a60.8,60.8 0 0 1 60.8,60.8 v0 a3.2,3.2 0 0 1 -3.2,3.2 h-126 a3.2,3.2 0 0 1 -3.2,-3.2 v-58 z"></path><path fill="#292524" d="M68,508 a32,32 0 0 1 32,-32 h0 a32,32 0 0 1 32,32 v0 a32,32 0 0 1 -32,32 h-0 a32,32 0 0 1 -32,-32 v-0 z"></path><path fill="#292524" d="M68,547 a3.2,3.2 0 0 1 3.2,-3.2 h58 a3.2,3.2 0 0 1 3.2,3.2 v0 a60.8,60.8 0 0 1 -60.8,60.8 h-0 a3.2,3.2 0 0 1 -3.2,-3.2 v-58 z"></path><path fill="#292524" d="M68,673 a60.8,60.8 0 0 1 60.8,-60.8 h0 a3.2,3.2 0 0 1 3.2,3.2 v126 a3.2,3.2 0 0 1 -3.2,3.2 h-0 a60.8,60.8 0 0 1 -60.8,-60.8 v-10 z"></path><path fill="#292524" d="M68,780 a32,32 0 0 1 32,-32 h0 a32,32 0 0 1 32,32 v0 a32,32 0 0 1 -32,32 h-0 a32,32 0 0 1 -32,-32 v-0 z"></path><path fill="#292524" d="M68,945 a60.8,60.8 0 0 1 60.8,-60.8 h68 a3.2,3.2 0 0 1 3.2,3.2 v0 a60.8,60.8 0 0 1 -60.8,60.8 h-68 a3.2,3.2 0 0 1 -3.2,-3.2 v-0 z"></path><path fill="#292524" d="M68,955 a3.2,3.2 0 0 1 3.2,-3.2 h58 a3.2,3.2 0 0 1 3.2,3.2 v0 a60.8,60.8 0 0 1 -60.8,60.8 h-0 a3.2,3.2 0 0 1 -3.2,-3.2 v-58 z"></path><path fill="#292524" d="M68,1023 a3.2,3.2 0 0 1 3.2,-3.2 h0 a60.8,60.8 0 0 1 60.8,60.8 v0 a3.2,3.2 0 0 1 -3.2,3.2 h-58 a3.2,3.2 0 0 1 -3.2,-3.2 v-58 z"></path><path fill="#292524" d="M136,3 a3.2,3.2 0 0 1 3.2,-3.2 h58 a3.2,3.2 0 0 1 3.2,3.2 v58 a3.2,3.2 0 0 1 -3.2,3.2 h-58 a3.2,3.2 0 0 1 -3.2,-3.2 v-58 z"></path><path fill="#292524" d="M136,71 a3.2,3.2 0 0 1 3.2,-3.2 h126 a3.2,3.2 0 0 1 3.2,3.2 v58 a3.2,3.2 0 0 1 -3.2,3.2 h-68 a60.8,60.8 0 0 1 -60.8,-60.8 v-0 z"></path><path fill="#292524" d="M136,168 a32,32 0 0 1 32,-32 h0 a32,32 0 0 1 32,32 v0 a32,32 0 0 1 -32,32 h-0 a32,32 0 0 1 -32,-32 v-0 z"></path><path fill="#292524" d="M136,207 a3.2,3.2 0 0 1 3.2,-3.2 h68 a60.8,60.8 0 0 1 60.8,60.8 v0 a3.2,3.2 0 0 1 -3.2,3.2 h-68 a60.8,60.8 0 0 1 -60.8,-60.8 v-0 z"></path><path fill="#292524" d="M136,275 a3.2,3.2 0 0 1 3.2,-3.2 h58 a3.2,3.2 0 0 1 3.2,3.2 v68 a60.8,60.8 0 0 1 -60.8,60.8 h-0 a3.2,3.2 0 0 1 -3.2,-3.2 v-126 z"></path><path fill="#292524" d="M136,479 a3.2,3.2 0 0 1 3.2,-3.2 h68 a60.8,60.8 0 0 1 60.8,60.8 v0 a3.2,3.2 0 0 1 -3.2,3.2 h-126 a3.2,3.2 0 0 1 -3.2,-3.2 v-58 z"></path><path fill="#292524" d="M136,547 a3.2,3.2 0 0 1 3.2,-3.2 h126 a3.2,3.2 0 0 1 3.2,3.2 v0 a60.8,60.8 0 0 1 -60.8,60.8 h-68 a3.2,3.2 0 0 1 -3.2,-3.2 v-58 z"></path><path fill="#292524" d="M136,615 a3.2,3.2 0 0 1 3.2,-3.2 h0 a60.8,60.8 0 0 1 60.8,60.8 v68 a3.2,3.2 0 0 1 -3.2,3.2 h-58 a3.2,3.2 0 0 1 -3.2,-3.2 v-126 z"></path><path fill="#292524" d="M136,751 a3.2,3.2 0 0 1 3.2,-3.2 h58 a3.2,3.2 0 0 1 3.2,3.2 v126 a3.2,3.2 0 0 1 -3.2,3.2 h-58 a3.2,3.2 0 0 1 -3.2,-3.2 v-126 z"></path><path fill="#292524" d="M136,955 a3.2,3.2 0 0 1 3.2,-3.2 h126 a3.2,3.2 0 0 1 3.2,3.2 v0 a60.8,60.8 0 0 1 -60.8,60.8 h-68 a3.2,3.2 0 0 1 -3.2,-3.2 v-58 z"></path><path fill="#292524" d="M136,1023 a3.2,3.2 0 0 1 3.2,-3.2 h58 a3.2,3.2 0 0 1 3.2,3.2 v58 a3.2,3.2 0 0 1 -3.2,3.2 h-0 a60.8,60.8 0 0 1 -60.8,-60.8 v-0 z"></path><path fill="#292524" d="M204,3 a3.2,3.2 0 0 1 3.2,-3.2 h58 a3.2,3.2 0 0 1 3.2,3.2 v58 a3.2,3.2 0 0 1 -3.2,3.2 h-58 a3.2,3.2 0 0 1 -3.2,-3.2 v-58 z"></path><path fill="#292524" d="M204,139 a3.2,3.2 0 0 1 3.2,-3.2 h58 a3.2,3.2 0 0 1 3.2,3.2 v58 a3.2,3.2 0 0 1 -3.2,3.2 h-58 a3.2,3.2 0 0 1 -3.2,-3.2 v-58 z"></path><path fill="#292524" d="M204,275 a3.2,3.2 0 0 1 3.2,-3.2 h58 a3.2,3.2 0 0 1 3.2,3.2 v58 a3.2,3.2 0 0 1 -3.2,3.2 h-0 a60.8,60.8 0 0 1 -60.8,-60.8 v-0 z"></path><path fill="#292524" d="M204,343 a3.2,3.2 0 0 1 3.2,-3.2 h58 a3.2,3.2 0 0 1 3.2,3.2 v58 a3.2,3.2 0 0 1 -3.2,3.2 h-58 a3.2,3.2 0 0 1 -3.2,-3.2 v-58 z"></path><path fill="#292524" d="M204,411 a3.2,3.2 0 0 1 3.2,-3.2 h58 a3.2,3.2 0 0 1 3.2,3.2 v58 a3.2,3.2 0 0 1 -3.2,3.2 h-58 a3.2,3.2 0 0 1 -3.2,-3.2 v-58 z"></path><path fill="#292524" d="M204,673 a60.8,60.8 0 0 1 60.8,-60.8 h0 a3.2,3.2 0 0 1 3.2,3.2 v58 a3.2,3.2 0 0 1 -3.2,3.2 h-58 a3.2,3.2 0 0 1 -3.2,-3.2 v-0 z"></path><path fill="#292524" d="M204,683 a3.2,3.2 0 0 1 3.2,-3.2 h58 a3.2,3.2 0 0 1 3.2,3.2 v58 a3.2,3.2 0 0 1 -3.2,3.2 h-58 a3.2,3.2 0 0 1 -3.2,-3.2 v-58 z"></path><path fill="#292524" d="M204,751 a3.2,3.2 0 0 1 3.2,-3.2 h58 a3.2,3.2 0 0 1 3.2,3.2 v58 a3.2,3.2 0 0 1 -3.2,3.2 h-0 a60.8,60.8 0 0 1 -60.8,-60.8 v-0 z"></path><path fill="#292524" d="M204,819 a3.2,3.2 0 0 1 3.2,-3.2 h0 a60.8,60.8 0 0 1 60.8,60.8 v0 a3.2,3.2 0 0 1 -3.2,3.2 h-58 a3.2,3.2 0 0 1 -3.2,-3.2 v-58 z"></path><path fill="#292524" d="M204,945 a60.8,60.8 0 0 1 60.8,-60.8 h0 a3.2,3.2 0 0 1 3.2,3.2 v58 a3.2,3.2 0 0 1 -3.2,3.2 h-58 a3.2,3.2 0 0 1 -3.2,-3.2 v-0 z"></path><path fill="#292524" d="M204,1023 a3.2,3.2 0 0 1 3.2,-3.2 h58 a3.2,3.2 0 0 1 3.2,3.2 v58 a3.2,3.2 0 0 1 -3.2,3.2 h-0 a60.8,60.8 0 0 1 -60.8,-60.8 v-0 z"></path></svg>